<?xml version="1.0" encoding="UTF-8"?>
<!DOCTYPE svg PUBLIC "-//W3C//DTD SVG 1.1//EN" "http://www.w3.org/Graphics/SVG/1.1/DTD/svg11.dtd">
<svg version="1.1" xmlns="http://www.w3.org/2000/svg" xmlns:xlink="http://www.w3.org/1999/xlink" x="0" y="0" width="87" height="60" viewBox="0, 0, 87, 60">
  <g id="Layer_1">
    <path d="M86.844,22.655 L86.844,14.241 C86.844,10.003 86.465,8.548 82.096,8.548 L79.375,8.548 C75.006,8.548 74.626,9.94 74.626,14.241 L74.626,28.537 C74.626,35.623 77.602,39.366 80.767,39.366 C83.869,39.366 86.844,35.623 86.844,28.601 L86.844,28.411 L84.691,28.411 L84.691,28.601 C84.691,34.484 82.54,37.394 80.767,37.394 C78.995,37.394 76.779,34.484 76.779,28.601 L76.779,22.655 L86.844,22.655" fill="#1A1919"/>
    <path d="M2.434,8.548 L0.156,8.548 L0.156,32.776 C0.156,36.634 1.232,38.533 4.144,38.533 L11.297,38.533 L11.297,36.382 L5.41,36.382 C3.068,36.382 2.434,35.75 2.434,33.219 L2.434,8.548" fill="#1A1919"/>
    <path d="M21.678,19.112 L16.362,19.112 C11.993,19.112 11.613,20.504 11.613,24.806 L11.613,28.537 C11.613,35.623 14.589,39.366 17.754,39.366 C20.919,39.366 23.831,35.623 23.831,28.537 L23.831,14.241 C23.831,9.94 23.388,8.548 19.083,8.548 L13.07,8.548 L13.07,10.699 L19.843,10.699 C21.552,10.699 21.678,11.838 21.678,14.115 L21.678,19.112" fill="#1A1919"/>
    <path d="M21.678,21.2 L21.678,28.601 C21.678,34.484 19.527,37.394 17.754,37.394 C15.982,37.394 13.766,34.484 13.766,28.601 L13.766,24.552 C13.766,22.275 13.892,21.2 15.601,21.2 L21.678,21.2" fill="#6A89A4"/>
    <path d="M30.979,39.176 C39.272,37.648 41.045,34.231 41.045,26.134 L41.045,14.241 C41.045,9.94 40.665,8.548 36.297,8.548 L33.575,8.548 C29.208,8.548 28.827,9.94 28.827,14.241 L28.827,51.675 L30.979,51.675 L30.979,39.176" fill="#1A1919"/>
    <path d="M30.979,36.951 L30.979,13.989 C30.979,11.711 31.106,10.636 32.815,10.636 L37.056,10.636 C38.766,10.636 38.892,11.711 38.892,13.989 L38.892,26.134 C38.892,32.966 37.626,35.813 30.979,36.951" fill="#A99C1A"/>
    <path d="M55.229,19.112 L49.912,19.112 C45.543,19.112 45.163,20.504 45.163,24.806 L45.163,28.537 C45.163,35.623 48.139,39.366 51.304,39.366 C54.469,39.366 57.381,35.623 57.381,28.537 L57.381,14.241 C57.381,9.94 56.938,8.548 52.633,8.548 L46.62,8.548 L46.62,10.699 L53.393,10.699 C55.102,10.699 55.229,11.838 55.229,14.115 L55.229,19.112" fill="#1A1919"/>
    <path d="M55.229,21.2 L55.229,28.601 C55.229,34.484 53.077,37.394 51.304,37.394 C49.532,37.394 47.316,34.484 47.316,28.601 L47.316,24.552 C47.316,22.275 47.443,21.2 49.152,21.2 L55.229,21.2" fill="#EFA92C"/>
    <path d="M71.687,15.697 L71.687,14.178 C71.687,9.877 71.244,8.485 66.94,8.485 L62.129,8.485 L62.129,38.533 L64.281,38.533 L64.281,10.573 L66.623,10.573 C69.282,10.573 69.535,10.952 69.535,13.989 L69.535,15.697 L71.687,15.697" fill="#1A1919"/>
    <path d="M80.894,0.227 L79.184,6.68 L79.438,6.68 L85.325,0.227 L80.894,0.227" fill="#1A1919"/>
    <path d="M76.779,20.631 L76.779,13.989 C76.779,11.774 76.906,10.636 78.615,10.636 L82.856,10.636 C84.502,10.636 84.691,11.711 84.691,13.989 L84.691,20.631 L76.779,20.631" fill="#B23627"/>
    <path d="M50.266,48.006 C50.348,47.923 50.389,47.842 50.389,47.761 C50.389,47.557 50.205,47.374 50.002,47.374 C49.92,47.374 49.818,47.414 49.736,47.496 C49.328,47.903 48.615,48.535 47.901,49.106 C47.901,49.024 47.922,48.963 47.922,48.882 C47.922,48.739 47.901,48.596 47.84,48.454 C47.31,46.844 45.434,46.07 43.619,45.947 C43.64,45.071 43.66,44.235 43.66,43.42 C43.66,41.199 43.558,39.121 43.415,36.859 C43.395,36.635 43.232,36.513 43.048,36.513 C42.865,36.513 42.681,36.656 42.681,36.88 L42.681,36.92 C42.824,38.856 42.865,41.016 42.865,43.237 C42.865,44.052 42.865,44.887 42.844,45.723 L42.844,45.947 C41.294,45.988 39.929,46.518 39.745,47.394 C39.724,47.455 39.724,47.537 39.724,47.598 C39.724,48.026 40.071,48.27 40.316,48.351 C40.357,48.351 40.397,48.372 40.418,48.372 C40.642,48.372 40.764,48.168 40.764,47.985 C40.764,47.842 40.683,47.679 40.5,47.638 C40.459,47.638 40.459,47.598 40.459,47.557 C40.622,47.047 41.641,46.722 42.844,46.681 C42.824,48.026 42.762,49.982 42.518,50.898 C42.436,50.96 42.416,51.062 42.416,51.163 C42.416,51.326 42.518,51.514 42.762,51.534 L42.783,51.534 C43.415,51.534 43.395,49.962 43.415,49.635 C43.497,48.678 43.558,47.699 43.599,46.701 C45.128,46.803 46.718,47.374 47.147,48.678 C47.167,48.759 47.188,48.841 47.188,48.922 C47.188,50.104 44.761,51.595 43.762,51.778 L43.721,51.798 C43.66,51.778 43.599,51.758 43.558,51.758 C43.354,51.758 43.232,51.942 43.232,52.145 C43.232,52.329 43.354,52.512 43.681,52.512 C43.762,52.512 43.844,52.512 43.925,52.491 C44.741,52.308 46.025,51.656 46.902,50.797 L46.922,50.777 C47.942,50.104 49.532,48.739 50.266,48.006" fill="#1A1919"/>
    <path d="M53.121,49.656 C53.183,49.574 53.223,49.493 53.223,49.411 C53.223,49.207 53.039,49.044 52.836,49.044 C52.754,49.044 52.652,49.065 52.571,49.167 C52.183,49.615 51.735,50.715 51.082,50.715 L51.041,50.715 C50.552,50.674 50.409,50.023 50.409,49.289 C50.409,48.555 50.552,47.74 50.593,47.455 C50.633,47.17 50.715,46.844 50.715,46.538 L50.715,46.457 C50.695,46.171 50.613,46.07 50.491,46.07 C50.287,46.07 50.002,46.375 49.981,46.579 C49.92,47.19 49.675,48.311 49.675,49.33 C49.675,50.41 49.94,51.371 50.98,51.452 L51.103,51.452 C52.163,51.452 52.509,50.369 53.121,49.656" fill="#1A1919"/>
    <path d="M51.641,43.305 C51.596,43.123 51.52,42.913 51.335,42.837 C51.276,42.812 51.213,42.796 51.152,42.796 C50.866,42.796 50.642,43.061 50.642,43.305 C50.642,43.448 50.723,43.57 50.907,43.632 C50.886,43.652 50.848,43.676 50.826,43.692 C50.706,43.777 50.662,43.876 50.662,43.998 C50.662,44.202 50.805,44.385 51.009,44.385 C51.07,44.385 51.15,44.362 51.213,44.324 C51.557,44.118 51.661,43.774 51.661,43.509 C51.661,43.428 51.657,43.368 51.641,43.305" fill="#1A1919"/>
    <path d="M54.793,53.857 C54.773,52.39 54.488,49.615 54.488,47.598 C54.488,46.844 54.528,46.212 54.63,45.763 L54.63,45.683 C54.63,45.458 54.447,45.315 54.263,45.315 C54.1,45.315 53.957,45.397 53.917,45.601 C53.794,46.11 53.753,46.803 53.753,47.618 C53.753,49.656 54.039,52.329 54.059,53.857 L54.059,54.244 C54.059,56.526 53.651,58.747 50.651,58.747 C49.325,58.747 48.938,58.054 47.959,57.26 C47.878,57.198 47.816,57.178 47.735,57.178 C47.551,57.178 47.408,57.361 47.408,57.565 C47.408,57.667 47.449,57.769 47.551,57.871 C48.591,58.788 49.142,59.481 50.651,59.481 C54.181,59.481 54.793,56.913 54.793,54.142 L54.793,53.857" fill="#1A1919"/>
    <path d="M55.289,42.317 C55.356,42.197 55.391,42.072 55.391,41.95 C55.391,41.685 55.228,41.44 54.881,41.44 L54.861,41.44 C54.616,41.44 54.494,41.623 54.494,41.807 C54.494,41.889 54.514,41.99 54.575,42.051 L54.453,42.174 C54.31,42.255 54.249,42.357 54.249,42.479 C54.249,42.683 54.412,42.866 54.616,42.866 C54.677,42.866 54.735,42.861 54.8,42.826 C54.959,42.738 55.173,42.523 55.289,42.317" fill="#1A1919"/>
    <path d="M62.367,47.618 C62.551,47.557 62.633,47.414 62.633,47.271 C62.633,47.088 62.49,46.905 62.286,46.905 C62.245,46.905 62.204,46.905 62.163,46.926 C61.572,47.109 58.778,46.946 58.778,47.761 C58.778,48.127 59.757,48.535 59.757,49.31 L59.757,49.411 C59.635,50.45 58.391,51.306 57.392,51.326 C56.78,51.326 56.23,51.001 56.107,50.206 C56.107,50.145 56.087,50.083 56.087,50.023 C56.087,48.882 57.636,47.068 57.983,47.068 C58.228,47.068 58.35,46.884 58.35,46.701 C58.35,46.518 58.228,46.334 57.983,46.334 C57.066,46.334 55.373,48.637 55.373,50.083 C55.373,50.165 55.373,50.246 55.393,50.328 C55.597,51.554 56.393,52.043 57.31,52.043 L57.372,52.043 C58.819,52.023 60.512,50.817 60.512,49.371 L60.512,49.35 C60.512,48.882 60.287,48.392 59.839,47.903 C60.654,47.802 61.592,47.863 62.367,47.618" fill="#1A1919"/>
    <path d="M69.871,50.124 C69.81,50.063 69.728,50.023 69.626,50.023 C69.504,50.023 69.361,50.083 69.218,50.226 C68.973,50.491 68.586,50.939 68.178,50.939 L68.158,50.939 C67.301,50.898 67.138,48.759 67.138,47.475 C67.138,47.088 67.138,46.803 67.158,46.64 L67.158,46.599 C67.158,46.395 66.996,46.232 66.791,46.232 C66.567,46.232 66.445,46.457 66.343,46.619 C65.833,47.394 64.019,50.511 62.897,50.552 L62.876,50.552 C62.551,50.552 62.387,50.104 62.387,49.574 L62.387,49.472 C62.428,48.006 62.958,46.701 63.122,46.66 C63.305,46.619 63.386,46.457 63.386,46.314 C63.386,46.131 63.264,45.927 63.039,45.927 C63.019,45.927 62.979,45.947 62.938,45.947 C62.387,46.09 61.734,47.822 61.734,49.289 C61.734,49.982 61.959,51.204 62.876,51.225 L62.897,51.225 C64.14,51.225 65.874,48.637 66.383,47.883 C66.404,48.596 66.486,49.269 66.608,49.839 C66.873,51.001 67.464,51.677 68.199,51.677 C68.851,51.677 69.34,51.184 69.748,50.736 C69.891,50.593 69.952,50.45 69.952,50.328 C69.952,50.246 69.911,50.186 69.871,50.124" fill="#1A1919"/>
    <path d="M75.262,46.171 C75.283,46.11 75.283,46.029 75.283,45.967 C75.283,45.438 74.753,45.173 74.182,45.173 C73.815,45.173 73.427,45.275 73.162,45.458 C72.163,46.151 71.368,46.966 70.715,47.822 C70.022,47.068 69.492,46.375 69.492,46.273 C69.492,46.232 69.512,46.191 69.512,46.171 C69.512,45.947 69.308,45.825 69.125,45.825 C68.982,45.825 68.819,45.906 68.778,46.09 L68.778,46.151 C68.778,46.498 69.39,47.475 70.267,48.433 C68.982,50.369 68.493,52.247 68.411,52.614 L68.411,52.695 C68.411,52.919 68.595,53.062 68.778,53.062 C68.941,53.062 69.084,52.981 69.125,52.777 C69.207,52.451 69.635,50.736 70.797,48.963 C71.755,49.839 72.918,50.613 74.019,50.613 L74.06,50.613 C74.447,50.613 74.814,50.511 75.161,50.308 C75.385,50.165 75.487,50.002 75.487,49.859 C75.487,49.656 75.303,49.513 75.099,49.513 C75.018,49.513 74.936,49.534 74.855,49.615 C74.692,49.778 74.406,49.839 74.1,49.839 C73.774,49.839 73.427,49.799 73.244,49.758 C72.673,49.615 71.918,49.024 71.225,48.351 C71.837,47.537 72.612,46.722 73.59,46.049 C73.713,45.967 73.937,45.886 74.161,45.886 L74.223,45.886 C74.345,45.886 74.427,45.927 74.549,46.008 L74.549,46.09 C74.549,46.314 74.732,46.457 74.936,46.457 C75.079,46.457 75.222,46.375 75.262,46.171" fill="#1A1919"/>
  </g>
</svg>
